# xmcd CD database file
#
# Track frame offsets:
#	150
#	23390
#	52142
#	77046
#	100442
#	125540
#	153146
#	171247
#	207263
#	231743
#	262672
#	290909
#
# Disc length: 4235 seconds
#
# Revision: 0
# Processed by: cddbd v1.5.2PL0 Copyright (c) Steve Scherf et al.
# Submitted via: CDex 1.51
#
DISCID=a610890c
DTITLE=Bill Anschell jazz unit - At the end of the day
DYEAR=2005
DGENRE=Jazz
TTITLE0=Goonyman
TTITLE1=Second thought
TTITLE2=Rootrot
TTITLE3=For now
TTITLE4=Kinah's new head
TTITLE5=At the end of the day
TTITLE6=Apocalypso
TTITLE7=Humble origins
TTITLE8=Faster than speed of mildew
TTITLE9=Quiet dignity
TTITLE10=Bent
TTITLE11=Morninng fog
EXTD=YEAR: 2005
EXTT0=
EXTT1=
EXTT2=
EXTT3=
EXTT4=
EXTT5=
EXTT6=
EXTT7=
EXTT8=
EXTT9=
EXTT10=
EXTT11=
PLAYORDER=
